<?xml version="1.0" standalone="no"?>
<!DOCTYPE svg PUBLIC "-//W3C//DTD SVG 20010904//EN"
 "http://www.w3.org/TR/2001/REC-SVG-20010904/DTD/svg10.dtd">
<svg version="1.0" xmlns="http://www.w3.org/2000/svg"
 width="500.000000pt" height="500.000000pt" viewBox="0 0 500.000000 500.000000"
 preserveAspectRatio="xMidYMid meet">

<g transform="translate(0.000000,500.000000) scale(0.100000,-0.100000)"
fill="#000000" stroke="none">
<path d="M2430 4191 c-19 -4 -60 -19 -90 -33 -68 -31 -1253 -720 -1298 -755
-52 -39 -100 -112 -122 -183 -20 -64 -21 -86 -18 -741 l3 -675 38 -76 c24 -50
53 -90 81 -115 45 -39 1232 -734 1327 -777 100 -45 216 -42 314 6 22 11 316
181 654 377 439 255 628 369 663 403 30 29 61 74 81 115 l32 68 0 695 0 695
-32 67 c-56 119 -72 130 -748 523 -341 197 -645 369 -676 382 -63 25 -155 36
-209 24z m-432 -423 c8 -7 12 -40 12 -97 l0 -86 40 47 c107 125 288 176 488
138 85 -16 89 -21 117 -138 13 -52 16 -94 12 -147 -5 -71 -4 -74 13 -63 15 10
29 8 72 -10 81 -33 186 -67 254 -82 l62 -14 35 -115 c50 -165 70 -272 69 -380
-1 -51 -3 -96 -6 -98 -2 -3 -9 22 -16 54 -24 125 -80 264 -156 384 -35 56 -49
66 -106 73 -29 4 -80 14 -113 23 l-60 15 -59 -38 -58 -38 28 -25 c16 -13 59
-50 95 -82 36 -33 84 -73 107 -90 47 -34 55 -49 114 -224 l42 -120 0 -160 c1
-131 -2 -164 -15 -183 -15 -21 -16 -17 -23 83 -4 68 -16 134 -31 183 -28 87
-129 268 -184 326 -59 63 -189 155 -212 149 -10 -3 -19 -9 -19 -13 0 -5 20
-50 44 -102 24 -51 62 -146 85 -210 l42 -117 2 -178 c1 -158 -1 -187 -21 -258
-28 -96 -69 -172 -85 -156 -7 7 -6 28 6 71 10 34 17 96 17 146 0 86 -30 262
-54 319 -7 16 -18 52 -25 80 -13 53 -121 266 -137 269 -5 0 -13 -26 -17 -59
-23 -176 -70 -456 -84 -500 -41 -131 -216 -497 -293 -615 -105 -160 -128 -145
-54 35 23 55 48 125 58 155 9 30 28 91 42 135 14 44 31 109 39 145 39 189 48
230 65 285 23 76 55 295 43 295 -2 0 -19 -11 -36 -24 -61 -45 -112 -42 -159 9
l-25 26 -18 -28 c-29 -46 -68 -84 -107 -104 -57 -29 -61 -24 -28 34 16 30 30
56 30 59 0 2 -13 3 -29 0 -22 -3 -33 1 -43 17 -22 35 -30 24 -27 -41 2 -35 -2
-63 -7 -63 -5 0 -20 23 -34 50 -20 39 -25 65 -25 121 0 67 -2 72 -27 87 -33
19 -87 91 -130 174 -18 35 -36 63 -41 63 -13 0 -46 -62 -57 -112 -7 -26 -16
-51 -21 -54 -5 -3 -9 -25 -9 -50 0 -61 -14 -55 -29 11 -7 30 -16 53 -21 50 -5
-3 -30 -37 -56 -76 -40 -61 -47 -79 -52 -135 -3 -47 -8 -64 -17 -60 -35 13
-75 -258 -75 -501 0 -79 -4 -133 -10 -133 -11 0 -33 71 -58 185 -22 103 -22
358 1 500 17 108 48 176 161 350 29 44 58 95 64 113 11 32 10 33 -11 30 -42
-6 -188 -248 -203 -337 -3 -20 -12 -55 -20 -79 -8 -23 -14 -66 -14 -95 0 -56
-13 -91 -23 -63 -7 17 15 139 44 245 24 86 61 163 127 265 25 39 46 72 47 72
1 6 165 51 165 45 0 -8 -89 -108 -90 -100 0 3 16 22 35 44 38 41 40 54 5 35
-20 -11 -53 -70 -48 -87 2 -5 -24 -48 -56 -98 -127 -196 -146 -239 -163 -365
-21 -151 -20 -349 1 -477 25 -156 31 -155 32 5 0 178 18 332 50 430 14 41 22
78 19 83 -4 5 2 6 11 2 14 -5 16 -3 11 11 -15 39 66 167 192 306 l74 81 46
-82 c49 -87 120 -174 150 -184 15 -4 17 -17 17 -93 -1 -60 4 -95 14 -112 14
-24 15 -22 20 47 5 74 15 100 26 67 26 -81 38 -87 93 -46 l33 25 -7 -24 c-3
-13 -19 -50 -34 -81 l-27 -56 26 18 c45 33 89 84 106 125 l16 39 15 -29 c26
-51 44 -65 82 -65 39 0 67 15 119 63 l32 31 0 -25 c-1 -70 -22 -231 -41 -307
-11 -48 -22 -102 -24 -119 -10 -103 -148 -556 -205 -676 -31 -63 -6 -32 52 65
84 141 168 317 251 528 40 100 107 488 107 615 0 30 4 55 8 55 25 0 208 -359
198 -387 -4 -9 -2 -19 4 -23 28 -17 64 -262 58 -393 -4 -106 1 -107 28 -7 15
53 18 101 17 255 -1 189 -1 191 -33 270 -52 133 -101 247 -131 306 l-28 56 46
10 46 11 106 -86 c94 -76 113 -96 156 -171 102 -174 144 -297 146 -426 1 -67
1 -68 11 -30 5 22 8 90 5 150 -3 95 -9 125 -40 215 -67 193 -80 218 -134 263
-28 23 -90 75 -137 116 -82 70 -88 73 -124 66 -45 -8 -43 -7 33 34 33 18 78
43 100 56 l40 24 90 -19 c50 -10 106 -21 125 -24 31 -5 41 -15 89 -91 54 -86
104 -201 127 -290 11 -43 12 -46 13 -18 2 88 -90 435 -120 454 -7 4 -29 10
-48 14 -47 8 -139 37 -225 69 l-70 27 -35 -25 c-19 -14 -37 -24 -39 -22 -2 2
2 24 9 47 17 63 15 185 -5 252 -20 67 -37 79 -150 97 -182 29 -378 -67 -456
-223 l-30 -60 0 137 c0 135 0 137 -25 148 -19 8 -28 8 -41 -3 -15 -12 -16 -33
-11 -189 4 -96 13 -206 21 -245 14 -70 13 -92 -4 -65 -5 7 -38 89 -75 181 -36
92 -72 172 -78 177 -7 6 -31 7 -62 1 -27 -5 -75 -12 -105 -15 -30 -4 -63 -11
-72 -15 -20 -11 -83 -118 -74 -126 4 -4 -26 -19 -66 -34 -40 -15 -111 -45
-158 -67 l-85 -40 -27 -69 c-46 -117 -78 -225 -93 -313 -8 -47 -18 -110 -23
-140 l-9 -55 -2 56 c-2 109 35 265 117 489 18 49 25 57 64 71 24 9 72 31 108
49 36 18 79 36 95 39 23 5 41 23 77 76 66 97 63 95 116 95 26 0 74 7 107 15
91 22 111 20 123 -12 6 -16 25 -66 42 -113 18 -47 37 -96 42 -109 13 -36 17
-22 8 29 -5 25 -10 109 -12 188 -3 134 -2 145 17 158 20 15 69 11 93 -8z m-24
-26 c2 -4 1 -14 -5 -22 -6 -10 -9 -11 -9 -2 0 6 -7 12 -15 12 -8 0 -15 5 -15
10 0 12 37 14 44 2z m389 -9 c7 -6 -38 -53 -51 -53 -3 0 -25 -18 -47 -40 -41
-40 -57 -45 -127 -38 -27 2 -22 31 11 62 46 44 192 92 214 69z m-633 -133 c-8
-5 -31 -9 -50 -9 l-35 1 30 8 c17 4 39 8 50 9 16 1 17 -1 5 -9z m60 -32 c38
-88 60 -149 50 -143 -5 3 -10 10 -10 16 0 21 -63 148 -71 143 -10 -6 -12 10
-2 19 11 11 13 9 33 -35z m-157 15 c-7 -2 -21 -2 -30 0 -10 3 -4 5 12 5 17 0
24 -2 18 -5z m121 -123 c18 -41 49 -108 69 -149 39 -78 41 -96 7 -66 -19 17
-29 9 -12 -10 4 -6 -11 9 -33 33 -23 23 -49 42 -58 42 -9 0 -35 34 -65 88 -53
92 -54 93 -122 78 l-35 -8 40 35 c38 34 43 36 108 33 l69 -2 32 -74z m-179 0
c-11 -4 -63 -21 -115 -38 -52 -16 -119 -39 -147 -51 -29 -11 -53 -18 -53 -15
0 14 276 114 315 113 l20 0 -20 -9z m78 -73 c38 -74 43 -86 30 -72 -18 18 -86
148 -74 141 6 -4 26 -35 44 -69z m1105 -13 c20 -9 75 -29 122 -45 47 -15 76
-28 66 -28 -23 -1 -227 67 -240 80 -16 14 11 11 52 -7z m-68 -1 c-1 -8 -58
-46 -195 -132 -96 -59 -72 -38 65 58 110 78 131 90 130 74z m-1067 -139 c43
-74 76 -141 74 -147 -2 -6 -45 49 -95 121 -51 72 -97 134 -103 137 -15 10 0
25 24 25 19 0 37 -25 100 -136z m-133 93 c0 -7 -22 -25 -49 -39 -54 -27 -106
-88 -212 -243 -74 -110 -82 -118 -40 -40 60 109 179 271 233 318 24 20 68 23
68 4z m220 -47 c6 -11 8 -20 6 -20 -3 0 -10 9 -16 20 -6 11 -8 20 -6 20 3 0
10 -9 16 -20z m1310 10 c11 -8 7 -9 -15 -4 -37 8 -45 14 -19 14 10 0 26 -5 34
-10z m-965 -70 c15 -7 16 -9 4 -9 -9 -1 -24 -12 -33 -26 -12 -19 -25 -25 -51
-25 -18 0 -36 -3 -38 -7 -4 -7 -28 -8 -136 -4 -20 1 -22 3 -10 17 14 17 61 43
99 55 34 10 140 10 165 -1z m-257 -18 c6 -18 -15 -14 -22 4 -4 10 -1 14 6 12
6 -2 14 -10 16 -16z m672 -205 c75 -152 161 -365 141 -353 -4 3 -21 40 -36 83
-49 135 -155 334 -199 375 -33 31 -37 39 -27 52 7 8 19 12 26 10 8 -3 50 -79
95 -167z m247 51 c37 -33 75 -68 83 -76 14 -14 13 -15 -5 -2 -58 42 -225 185
-225 193 0 10 54 -31 147 -115z m-167 107 c0 -2 -19 -9 -42 -15 -24 -6 -51
-13 -60 -16 -10 -3 -18 -1 -18 4 0 5 21 13 48 19 58 13 72 14 72 8z m-261 -51
c-18 -20 -47 -45 -64 -56 -16 -11 -4 5 28 36 64 62 91 77 36 20z m-526 -69 c4
-32 3 -43 -3 -30 -8 19 -14 93 -6 84 2 -2 6 -26 9 -54z m-33 3 c0 -23 -3 -29
-11 -21 -6 6 -8 20 -4 32 9 30 15 26 15 -11z m566 2 l27 -11 -6 -122 c-3 -67
-13 -167 -21 -222 -18 -113 -46 -238 -52 -232 -3 2 2 33 10 68 18 74 46 303
46 370 0 32 -6 53 -20 69 -23 27 -35 64 -25 79 8 13 7 13 41 1z m-337 -3 c-2
-1 -26 -20 -54 -41 l-50 -38 42 41 c23 23 48 41 54 41 7 0 10 -1 8 -3z m220
-73 c-30 -31 -72 -69 -94 -86 -22 -17 0 10 49 60 50 50 92 89 95 86 3 -2 -20
-29 -50 -60z m-209 30 c0 -22 -24 -44 -48 -44 l-27 1 28 24 c27 24 47 32 47
19z m-819 -81 c-12 -20 -14 -14 -5 12 4 9 9 14 11 11 3 -2 0 -13 -6 -23z
m1705 -9 c8 -20 13 -38 11 -40 -2 -2 -11 14 -20 36 -19 50 -12 53 9 4z m-1056
-8 c0 -2 -7 -7 -16 -10 -8 -3 -12 -2 -9 4 6 10 25 14 25 6z m-645 -36 l20 -25
-22 19 c-13 11 -23 24 -23 29 0 6 1 8 3 6 1 -2 11 -15 22 -29z m-38 -32 c-3
-8 -6 -5 -6 6 -1 11 2 17 5 13 3 -3 4 -12 1 -19z m1483 -192 c0 -2 -8 -10 -17
-17 -16 -13 -17 -12 -4 4 13 16 21 21 21 13z m-393 -38 c-3 -7 -5 -2 -5 12 0
14 2 19 5 13 2 -7 2 -19 0 -25z m-26 -171 c-10 -9 -11 -8 -5 6 3 10 9 15 12
12 3 -3 0 -11 -7 -18z m-71 -244 c-11 -17 -11 -17 -6 0 3 10 6 24 7 30 0 9 2
9 5 0 3 -7 0 -20 -6 -30z m-750 -400 c35 -24 40 -34 28 -57 -16 -31 -28 -35
-56 -23 -20 9 -26 8 -38 -8 -9 -12 -18 -15 -24 -9 -9 9 44 114 59 114 3 0 18
-8 31 -17z m2350 -12 c0 -5 -10 -15 -22 -24 -23 -15 -22 -15 12 -14 28 2 36
-2 38 -18 3 -23 -52 -63 -63 -46 -3 6 5 16 17 23 22 12 22 13 -12 18 -45 7
-51 33 -13 54 33 18 43 19 43 7z m-70 -77 c15 -26 18 -40 11 -47 -6 -6 -11 -8
-11 -4 0 4 -9 -2 -21 -14 -17 -17 -23 -18 -35 -8 -26 21 -46 67 -33 75 7 4 15
1 20 -7 4 -8 14 -23 23 -34 14 -19 15 -19 21 -2 4 10 0 27 -8 41 -15 22 -13
36 4 36 4 0 17 -16 29 -36z m-2220 6 c0 -5 9 -10 20 -10 12 0 17 -5 14 -14 -3
-8 -13 -12 -24 -9 -12 3 -24 -4 -35 -21 -10 -14 -21 -23 -26 -20 -13 8 -11 15
11 52 19 31 40 43 40 22z m2105 -41 c-8 -25 5 -49 26 -49 23 0 25 -16 3 -24
-26 -10 -34 -7 -46 19 -6 14 -17 25 -23 25 -7 0 -12 11 -12 24 0 21 4 25 28
23 21 -1 27 -6 24 -18z m-2017 -5 c26 -18 27 -34 7 -74 l-15 -29 -35 20 c-38
22 -44 39 -21 58 11 10 20 10 36 1 12 -6 24 -9 27 -6 3 3 -6 11 -20 17 -15 7
-24 16 -21 20 7 13 17 11 42 -7z m1937 7 c7 -12 -12 -24 -25 -16 -11 7 -4 25
10 25 5 0 11 -4 15 -9z m34 -65 c24 -39 26 -46 8 -46 -13 0 -47 50 -47 69 0
21 19 11 39 -23z m-1868 -5 c23 -19 23 -21 7 -37 -15 -15 -22 -16 -45 -6 l-28
12 23 -19 c32 -28 28 -45 -7 -26 -37 18 -42 33 -24 68 16 32 42 35 74 8z
m1817 -8 c31 -46 33 -51 17 -57 -10 -3 -20 5 -31 25 -12 24 -18 28 -29 19 -12
-10 -12 -15 1 -35 16 -24 11 -50 -7 -40 -5 4 -16 20 -25 37 -16 30 -15 31 13
54 36 30 38 30 61 -3z m-1694 -61 c38 -23 40 -30 15 -71 -14 -24 -23 -31 -31
-23 -8 8 -6 18 6 36 20 31 20 36 1 36 -9 0 -21 -11 -27 -25 -6 -14 -14 -25
-18 -25 -16 0 -18 15 -5 41 19 35 19 39 0 39 -9 0 -21 -11 -27 -25 -6 -14 -17
-25 -25 -25 -17 0 -17 4 7 50 22 43 17 43 104 -8z m1596 8 c27 -27 25 -56 -6
-77 -31 -20 -54 -10 -69 32 -8 23 -6 30 14 46 29 24 36 24 61 -1z m-86 -71
c26 -44 5 -61 -22 -17 -17 26 -22 29 -27 16 -4 -9 -1 -26 5 -38 8 -15 9 -25 2
-32 -7 -7 -16 0 -27 22 -12 23 -20 29 -28 21 -7 -7 -7 -18 2 -37 19 -43 -3
-51 -28 -9 -26 44 -26 51 -3 59 9 3 31 14 47 25 42 27 58 25 79 -10z m-1404 3
c47 -38 -5 -111 -56 -77 -28 18 -31 51 -7 77 20 23 35 23 63 0z m84 -51 c38
-22 40 -29 15 -70 -14 -23 -23 -31 -31 -23 -7 7 -5 17 6 33 21 30 20 39 -2 39
-11 0 -24 -12 -31 -26 -10 -22 -34 -31 -32 -11 2 14 35 77 40 76 3 0 19 -8 35
-18z m98 -16 c0 -5 -5 -11 -11 -13 -6 -2 -11 4 -11 13 0 9 5 15 11 13 6 -2 11
-8 11 -13z m1075 -2 c4 -10 -2 -23 -18 -36 l-24 -20 33 8 c35 7 41 -1 15 -21
-40 -30 -83 -7 -83 45 0 36 65 57 77 24z m-1087 -27 c0 -16 -45 -76 -56 -76
-11 0 -10 8 6 40 11 22 27 40 35 40 8 0 15 -2 15 -4z m56 -22 c-3 -7 -1 -16 4
-19 6 -4 10 -11 10 -16 0 -6 -5 -7 -12 -3 -15 10 -37 -23 -31 -46 6 -24 -9
-26 -27 -5 -11 13 -10 21 0 43 8 15 13 31 11 36 -3 11 32 36 42 29 5 -3 6 -11
3 -19z m944 -16 c23 -38 25 -48 8 -48 -6 0 -19 -7 -29 -16 -10 -9 -25 -14 -34
-11 -22 9 -18 42 8 60 16 12 18 16 7 16 -9 1 -21 -4 -28 -11 -6 -6 -15 -8 -19
-4 -10 9 33 46 53 46 8 0 23 -15 34 -32z m-100 -21 c0 -7 -5 -18 -11 -24 -8
-8 -8 -17 0 -31 27 -50 0 -58 -29 -9 -24 38 -25 47 -6 47 8 0 16 7 20 15 7 18
26 20 26 2z m-796 -6 c3 -4 -1 -17 -9 -27 -8 -10 -15 -25 -15 -31 0 -23 30
-14 42 12 11 25 19 30 31 19 8 -9 -31 -84 -43 -84 -6 0 -10 5 -10 10 0 6 -9
10 -20 10 -30 0 -36 28 -15 66 18 34 29 41 39 25z m708 -18 c24 -21 23 -48 -3
-66 -17 -12 -19 -19 -10 -35 8 -15 8 -23 0 -28 -13 -8 -18 -2 -53 58 l-27 48
33 20 c40 24 37 24 60 3z m-584 -49 c30 -21 17 -38 -14 -18 -26 18 -34 4 -9
-16 18 -15 20 -47 3 -53 -17 -6 -68 20 -68 34 0 6 7 8 15 5 49 -20 50 -20 27
6 -40 44 -4 78 46 42z"/>
<path d="M1392 3070 c0 -14 2 -19 5 -12 2 6 2 18 0 25 -3 6 -5 1 -5 -13z"/>
<path d="M1367 3053 c-4 -3 -6 -29 -6 -57 l2 -51 7 55 c7 59 7 64 -3 53z"/>
<path d="M1611 3513 c8 -2 32 -35 53 -73 21 -39 46 -75 57 -80 10 -6 19 -15
19 -21 0 -6 -6 -7 -12 -3 -7 4 7 -11 32 -33 27 -25 46 -36 48 -28 2 7 -20 65
-49 129 l-52 116 -56 -1 c-31 -1 -49 -3 -40 -6z"/>
<path d="M1326 1753 c-8 -19 14 -37 28 -23 10 10 1 40 -13 40 -5 0 -12 -8 -15
-17z"/>
<path d="M1460 1600 c0 -5 7 -10 15 -10 8 0 15 5 15 10 0 6 -7 10 -15 10 -8 0
-15 -4 -15 -10z"/>
<path d="M1572 1579 c2 -7 10 -15 17 -17 8 -3 12 1 9 9 -2 7 -10 15 -17 17 -8
3 -12 -1 -9 -9z"/>
<path d="M3280 1500 c0 -11 7 -23 15 -27 21 -8 28 1 20 26 -8 27 -35 27 -35 1z"/>
<path d="M1797 1443 c-12 -12 -7 -43 7 -43 13 0 26 20 26 41 0 10 -23 12 -33
2z"/>
<path d="M3050 1380 c-8 -5 -11 -12 -7 -16 4 -4 13 -2 19 4 15 15 7 24 -12 12z"/>
<path d="M2970 1295 c-10 -12 -10 -15 4 -15 9 0 16 7 16 15 0 8 -2 15 -4 15
-2 0 -9 -7 -16 -15z"/>
<path d="M2774 1259 c-10 -17 13 -36 27 -22 12 12 4 33 -11 33 -5 0 -12 -5
-16 -11z"/>
</g>
</svg>
